<mxfile host="app.diagrams.net" modified="2023-06-30T03:45:47.230Z" agent="Mozilla/5.0 (Macintosh; Intel Mac OS X 10_15_7) AppleWebKit/537.36 (KHTML, like Gecko) Chrome/114.0.0.0 Safari/537.36" version="21.3.7" etag="Z0uakJXfa3w6dmFazrZY" type="github">
  <diagram name="第 1 页" id="PUpXTEfhrl9neY_Xw6fe">
    <mxGraphModel>
      <root>
        <mxCell id="0" />
        <mxCell id="1" parent="0" />
      </root>
    </mxGraphModel>
  </diagram>
</mxfile>
